<svg id="svg" version="1.1" xmlns="http://www.w3.org/2000/svg" xmlns:xlink="http://www.w3.org/1999/xlink" width="400" height="133.33333333333334" viewBox="0, 0, 400,133.33333333333334"><g id="svgg"><path id="path0" d="M46.708 40.875 C 32.750 54.831,21.285 66.392,21.230 66.565 C 21.135 66.862,71.171 117.198,72.044 117.684 C 72.222 117.783,72.443 117.788,72.606 117.697 C 73.479 117.209,123.333 67.054,123.333 66.665 C 123.333 66.060,113.267 56.000,112.661 56.000 C 112.340 56.000,107.988 60.263,92.416 75.833 C 79.539 88.708,72.465 95.667,72.253 95.667 C 71.722 95.667,43.333 67.203,43.333 66.671 C 43.333 66.340,47.414 62.173,63.167 46.417 C 76.063 33.517,83.000 26.464,83.000 26.251 C 83.000 25.865,72.715 15.500,72.332 15.500 C 72.197 15.500,60.666 26.919,46.708 40.875 M325.704 26.087 C 310.454 28.772,310.511 51.255,325.775 53.916 C 334.979 55.521,342.374 49.332,342.404 40.000 C 342.433 30.679,334.964 24.457,325.704 26.087 M140.741 26.545 C 140.696 26.664,140.680 28.183,140.705 29.922 L 140.750 33.083 145.875 33.127 C 148.694 33.152,151.000 33.209,151.000 33.254 C 151.000 33.299,148.673 36.532,145.830 40.438 L 140.659 47.539 140.705 50.644 L 140.750 53.750 150.833 53.750 L 160.917 53.750 160.917 50.417 L 160.917 47.083 155.708 47.039 C 152.844 47.015,150.500 46.955,150.500 46.907 C 150.500 46.858,152.864 43.619,155.754 39.710 L 161.007 32.601 160.962 29.509 L 160.917 26.417 150.870 26.374 C 142.795 26.339,140.808 26.373,140.741 26.545 M172.256 26.622 C 172.193 26.784,171.841 27.742,171.474 28.750 C 171.107 29.758,170.656 30.996,170.471 31.500 C 170.286 32.004,168.672 36.429,166.883 41.333 C 165.095 46.237,163.379 50.942,163.070 51.789 C 162.262 54.002,161.959 53.847,166.969 53.794 L 171.234 53.750 171.909 51.627 L 172.583 49.503 176.980 49.543 L 181.376 49.583 182.064 51.667 L 182.752 53.750 187.024 53.794 C 190.665 53.832,191.309 53.803,191.390 53.593 C 191.495 53.318,191.336 52.839,189.163 46.917 C 188.322 44.625,187.575 42.563,187.502 42.333 C 187.429 42.104,186.681 40.042,185.840 37.750 C 184.999 35.458,184.165 33.171,183.987 32.667 C 183.809 32.162,183.228 30.550,182.696 29.083 L 181.727 26.417 177.049 26.372 C 172.709 26.331,172.363 26.349,172.256 26.622 M193.243 26.542 C 193.200 26.656,193.183 32.825,193.207 40.250 L 193.250 53.750 197.333 53.750 L 201.417 53.750 201.500 47.698 L 201.583 41.647 203.131 46.198 C 203.983 48.702,204.922 51.425,205.218 52.250 L 205.757 53.750 209.238 53.750 L 212.720 53.750 213.129 52.583 C 213.353 51.942,214.281 49.245,215.191 46.591 C 216.101 43.937,216.880 41.731,216.923 41.688 C 216.965 41.646,217.000 44.361,217.000 47.722 L 217.000 53.833 221.066 53.833 C 224.619 53.833,225.144 53.800,225.232 53.570 C 225.385 53.171,225.348 26.782,225.194 26.539 C 225.090 26.375,223.988 26.338,220.255 26.372 L 215.449 26.417 213.305 32.083 C 212.127 35.200,210.740 38.861,210.223 40.219 L 209.284 42.688 207.053 36.886 C 205.826 33.694,204.405 30.015,203.896 28.708 L 202.969 26.333 198.146 26.333 C 194.441 26.333,193.304 26.382,193.243 26.542 M236.586 26.885 C 236.459 27.188,235.157 30.732,233.692 34.760 C 232.228 38.788,230.342 43.958,229.501 46.250 C 227.176 52.592,226.945 53.282,227.055 53.568 C 227.190 53.920,235.357 53.975,235.610 53.625 C 235.694 53.510,236.045 52.535,236.392 51.458 L 237.022 49.500 241.391 49.500 L 245.760 49.500 246.476 51.669 L 247.192 53.839 251.469 53.794 C 256.407 53.743,256.125 53.868,255.440 52.038 C 255.209 51.421,254.685 49.979,254.274 48.833 C 253.863 47.688,253.114 45.625,252.610 44.250 C 252.106 42.875,251.356 40.813,250.943 39.667 C 250.531 38.521,249.781 36.458,249.277 35.083 C 248.773 33.708,247.906 31.325,247.350 29.786 C 246.794 28.248,246.260 26.841,246.164 26.661 C 245.996 26.347,245.792 26.333,241.402 26.333 L 236.816 26.333 236.586 26.885 M257.601 26.597 C 257.469 26.941,257.469 53.225,257.601 53.570 C 257.690 53.800,258.214 53.833,261.766 53.833 L 265.830 53.833 265.873 46.973 L 265.917 40.112 270.472 46.973 L 275.027 53.833 279.097 53.833 L 283.167 53.833 283.167 40.083 L 283.167 26.333 279.101 26.333 C 275.548 26.333,275.023 26.367,274.934 26.597 C 274.879 26.742,274.833 29.835,274.833 33.471 L 274.833 40.081 273.612 38.249 C 272.940 37.241,270.908 34.148,269.097 31.375 L 265.804 26.333 261.753 26.333 C 258.213 26.333,257.690 26.367,257.601 26.597 M286.410 26.542 C 286.366 26.656,286.350 32.825,286.374 40.250 L 286.417 53.750 290.540 53.795 L 294.663 53.839 294.706 46.980 L 294.750 40.122 299.286 46.980 L 303.822 53.839 307.869 53.795 L 311.917 53.750 311.917 40.083 L 311.917 26.417 307.833 26.417 L 303.750 26.417 303.667 33.245 L 303.583 40.074 299.095 33.204 L 294.607 26.333 290.548 26.333 C 287.455 26.333,286.471 26.383,286.410 26.542 M343.735 26.562 C 343.687 26.687,343.844 27.606,344.083 28.603 C 344.610 30.798,345.622 34.970,346.502 38.583 C 348.234 45.691,349.720 51.857,350.088 53.461 L 350.174 53.838 355.128 53.794 L 360.081 53.750 360.522 51.833 C 360.765 50.779,361.501 47.554,362.158 44.667 C 362.815 41.779,363.373 39.344,363.397 39.254 C 363.422 39.165,363.609 39.840,363.813 40.754 C 364.018 41.669,364.287 42.867,364.411 43.417 C 364.536 43.967,364.832 45.279,365.070 46.333 C 365.307 47.387,365.783 49.487,366.126 51.000 L 366.750 53.750 371.628 53.794 L 376.506 53.838 376.671 53.404 C 376.762 53.165,377.169 51.608,377.575 49.943 C 377.981 48.279,379.062 43.879,379.977 40.167 C 380.893 36.454,381.985 32.022,382.404 30.317 C 382.823 28.612,383.167 27.018,383.167 26.775 L 383.167 26.333 378.843 26.333 C 376.397 26.333,374.479 26.400,374.425 26.486 C 374.326 26.647,374.208 27.292,373.266 32.833 C 372.144 39.430,371.651 42.238,371.607 42.282 C 371.582 42.307,370.904 39.384,370.099 35.788 C 369.295 32.192,368.573 29.025,368.496 28.750 C 368.419 28.475,368.270 27.819,368.166 27.292 L 367.976 26.333 363.500 26.333 L 359.024 26.333 358.835 27.292 C 358.732 27.819,358.615 28.348,358.575 28.467 C 358.536 28.586,358.043 30.686,357.481 33.134 C 356.163 38.863,356.033 39.433,355.835 40.333 C 355.544 41.662,355.364 42.358,355.294 42.429 C 355.256 42.466,355.023 41.279,354.777 39.790 C 353.973 34.927,352.837 28.271,352.645 27.292 L 352.457 26.333 348.140 26.333 C 344.637 26.333,343.806 26.376,343.735 26.562 M331.150 34.255 C 334.476 36.074,335.193 41.643,332.480 44.586 C 330.356 46.890,326.541 46.921,324.417 44.650 C 322.145 42.220,322.298 36.983,324.703 34.924 C 326.324 33.537,329.277 33.230,331.150 34.255 M242.564 42.966 C 241.987 42.993,241.000 42.993,240.371 42.966 L 239.227 42.917 240.313 39.599 L 241.399 36.281 242.506 39.599 L 243.612 42.917 242.564 42.966 M178.094 39.667 C 178.617 41.271,179.081 42.677,179.124 42.792 C 179.184 42.952,178.693 43.000,177.000 43.000 C 175.310 43.000,174.815 42.952,174.871 42.792 C 174.912 42.677,175.385 41.215,175.923 39.542 C 176.461 37.869,176.955 36.557,177.021 36.625 C 177.087 36.694,177.570 38.063,178.094 39.667 M62.197 66.880 C 62.040 67.069,62.025 67.232,62.145 67.448 C 62.400 67.908,72.043 77.443,72.363 77.552 C 72.822 77.708,73.673 76.951,78.458 72.132 C 83.066 67.491,83.180 67.357,82.767 67.014 C 82.353 66.670,62.477 66.541,62.197 66.880 " stroke="none" fill="#f9fafa" fill-rule="evenodd"></path><path id="path1" d="M18.601 13.264 C 18.469 13.608,18.469 119.725,18.601 120.070 C 18.693 120.309,23.584 120.333,72.351 120.333 L 126.000 120.333 126.000 66.667 L 126.000 13.000 72.351 13.000 C 23.584 13.000,18.693 13.024,18.601 13.264 M77.789 20.711 C 81.096 24.018,83.000 26.042,83.000 26.251 C 83.000 26.464,76.063 33.517,63.167 46.417 C 47.414 62.173,43.333 66.340,43.333 66.671 C 43.333 67.203,71.722 95.667,72.253 95.667 C 72.465 95.667,79.539 88.708,92.416 75.833 C 107.988 60.263,112.340 56.000,112.661 56.000 C 113.267 56.000,123.333 66.060,123.333 66.665 C 123.333 67.054,73.479 117.209,72.606 117.697 C 72.443 117.788,72.222 117.783,72.044 117.684 C 71.171 117.198,21.135 66.862,21.230 66.565 C 21.371 66.123,72.031 15.500,72.332 15.500 C 72.467 15.500,74.923 17.845,77.789 20.711 M82.767 67.014 C 83.180 67.357,83.066 67.491,78.458 72.132 C 73.673 76.951,72.822 77.708,72.363 77.552 C 72.043 77.443,62.400 67.908,62.145 67.448 C 62.025 67.232,62.040 67.069,62.197 66.880 C 62.477 66.541,82.353 66.670,82.767 67.014 M140.944 79.444 C 140.621 79.768,140.829 106.652,141.156 106.827 C 141.501 107.012,148.441 107.076,148.903 106.899 C 149.140 106.808,149.167 105.434,149.167 93.066 L 149.167 79.333 145.111 79.333 C 142.881 79.333,141.006 79.383,140.944 79.444 M152.268 79.597 C 152.006 80.280,152.161 106.470,152.429 106.738 C 152.820 107.130,160.013 107.130,160.405 106.738 C 160.634 106.509,160.667 105.652,160.668 99.863 L 160.668 93.250 165.142 100.014 C 167.602 103.734,169.746 106.828,169.905 106.889 C 170.266 107.028,177.210 107.037,177.570 106.899 C 177.807 106.808,177.833 105.433,177.833 93.063 L 177.833 79.328 173.708 79.372 L 169.583 79.417 169.500 86.224 L 169.417 93.031 167.314 89.807 C 166.158 88.034,164.142 84.952,162.834 82.958 L 160.456 79.333 156.413 79.333 C 152.879 79.333,152.356 79.367,152.268 79.597 M179.601 79.597 C 179.546 79.742,179.500 81.202,179.500 82.841 C 179.500 86.488,179.122 86.167,183.406 86.167 L 186.667 86.167 186.667 96.482 C 186.667 105.735,186.694 106.808,186.930 106.899 C 187.392 107.076,194.333 107.012,194.678 106.827 C 194.991 106.660,195.000 106.368,195.000 96.411 L 195.000 86.167 198.236 86.167 C 202.461 86.167,202.000 86.598,202.000 82.649 L 202.000 79.333 190.851 79.333 C 180.839 79.333,179.692 79.360,179.601 79.597 M203.833 93.066 C 203.833 105.434,203.860 106.808,204.097 106.899 C 204.496 107.052,221.218 107.015,221.462 106.860 C 221.624 106.757,221.663 105.950,221.629 103.405 L 221.583 100.083 216.875 100.039 L 212.167 99.995 212.167 98.081 L 212.167 96.167 216.330 96.167 L 220.494 96.167 220.586 95.792 C 220.637 95.585,220.657 94.142,220.631 92.583 L 220.583 89.750 216.375 89.705 L 212.167 89.661 212.167 87.916 L 212.167 86.172 216.875 86.128 L 221.583 86.083 221.628 82.708 L 221.674 79.333 212.753 79.333 L 203.833 79.333 203.833 93.066 M224.272 79.586 C 223.955 80.411,224.165 106.654,224.489 106.827 C 224.867 107.030,231.975 107.063,232.289 106.864 C 232.443 106.767,232.506 105.510,232.539 101.887 L 232.583 97.040 235.083 101.721 C 236.458 104.296,237.715 106.537,237.875 106.701 C 238.170 107.004,245.842 107.178,246.570 106.899 C 247.117 106.689,246.759 105.879,244.083 101.262 C 240.897 95.765,241.094 96.356,242.277 95.844 C 247.248 93.691,248.361 86.048,244.295 81.987 C 243.424 81.117,241.714 80.165,240.250 79.736 C 238.755 79.297,224.434 79.163,224.272 79.586 M249.268 79.597 C 248.954 80.414,249.167 106.655,249.489 106.827 C 249.868 107.030,256.976 107.063,257.290 106.864 C 257.447 106.764,257.507 105.118,257.540 99.929 L 257.583 93.124 262.064 99.902 C 264.529 103.629,266.680 106.751,266.845 106.840 C 267.169 107.013,274.134 107.066,274.570 106.899 C 274.807 106.808,274.833 105.434,274.833 93.066 L 274.833 79.333 270.750 79.333 C 268.504 79.333,266.650 79.352,266.630 79.375 C 266.609 79.398,266.553 82.484,266.505 86.234 L 266.417 93.051 261.941 86.192 L 257.466 79.333 253.417 79.333 C 249.880 79.333,249.356 79.367,249.268 79.597 M237.284 86.827 C 237.937 87.225,238.333 87.952,238.333 88.750 C 238.333 90.465,237.454 90.999,234.625 90.999 L 232.500 91.000 232.500 88.750 L 232.500 86.500 234.625 86.501 C 236.439 86.501,236.828 86.549,237.284 86.827 " stroke="none" fill="#0c4b3c" fill-rule="evenodd"></path></g></svg>